# This file uses centimeters as units for non-parametric coordinates.

mtllib Inverted Cylinder.mtl
g default
v 0.500000 -0.785000 -0.000000
v 0.489074 -0.785000 -0.103956
v 0.456773 -0.785000 -0.203368
v 0.404509 -0.785000 -0.293893
v 0.334565 -0.785000 -0.371572
v 0.250000 -0.785000 -0.433013
v 0.154509 -0.785000 -0.475528
v 0.052264 -0.785000 -0.497261
v -0.052264 -0.785000 -0.497261
v -0.154509 -0.785000 -0.475528
v -0.250000 -0.785000 -0.433013
v -0.334565 -0.785000 -0.371573
v -0.404509 -0.785000 -0.293893
v -0.456773 -0.785000 -0.203368
v -0.489074 -0.785000 -0.103956
v -0.500000 -0.785000 0.000000
v -0.489074 -0.785000 0.103956
v -0.456773 -0.785000 0.203368
v -0.404509 -0.785000 0.293893
v -0.334565 -0.785000 0.371573
v -0.250000 -0.785000 0.433013
v -0.154509 -0.785000 0.475529
v -0.052264 -0.785000 0.497261
v 0.052264 -0.785000 0.497261
v 0.154509 -0.785000 0.475529
v 0.250000 -0.785000 0.433013
v 0.334566 -0.785000 0.371573
v 0.404509 -0.785000 0.293893
v 0.456773 -0.785000 0.203368
v 0.489074 -0.785000 0.103956
v 0.500000 0.785000 0.000000
v 0.489074 0.785000 -0.103956
v 0.456773 0.785000 -0.203368
v 0.404509 0.785000 -0.293893
v 0.334565 0.785000 -0.371572
v 0.250000 0.785000 -0.433013
v 0.154509 0.785000 -0.475528
v 0.052264 0.785000 -0.497261
v -0.052264 0.785000 -0.497261
v -0.154509 0.785000 -0.475528
v -0.250000 0.785000 -0.433013
v -0.334565 0.785000 -0.371573
v -0.404509 0.785000 -0.293893
v -0.456773 0.785000 -0.203368
v -0.489074 0.785000 -0.103956
v -0.500000 0.785000 0.000000
v -0.489074 0.785000 0.103956
v -0.456773 0.785000 0.203368
v -0.404509 0.785000 0.293893
v -0.334565 0.785000 0.371573
v -0.250000 0.785000 0.433013
v -0.154509 0.785000 0.475529
v -0.052264 0.785000 0.497261
v 0.052264 0.785000 0.497261
v 0.154509 0.785000 0.475529
v 0.250000 0.785000 0.433013
v 0.334566 0.785000 0.371573
v 0.404509 0.785000 0.293893
v 0.456773 0.785000 0.203368
v 0.489074 0.785000 0.103956
vt 1.000000 0.000000
vt 0.966667 0.000000
vt 0.933333 0.000000
vt 0.900000 0.000000
vt 0.866667 0.000000
vt 0.833333 0.000000
vt 0.800000 0.000000
vt 0.766667 0.000000
vt 0.733334 0.000000
vt 0.700000 0.000000
vt 0.666667 0.000000
vt 0.633334 0.000000
vt 0.600000 0.000000
vt 0.566667 0.000000
vt 0.533334 0.000000
vt 0.500000 0.000000
vt 0.466667 0.000000
vt 0.433334 0.000000
vt 0.400000 0.000000
vt 0.366667 0.000000
vt 0.333334 0.000000
vt 0.300000 0.000000
vt 0.266667 0.000000
vt 0.233333 0.000000
vt 0.200000 0.000000
vt 0.166667 0.000000
vt 0.133333 0.000000
vt 0.100000 0.000000
vt 0.066667 0.000000
vt 0.033333 0.000000
vt 0.000000 0.000000
vt 1.000000 1.000000
vt 0.966667 1.000000
vt 0.933333 1.000000
vt 0.900000 1.000000
vt 0.866667 1.000000
vt 0.833333 1.000000
vt 0.800000 1.000000
vt 0.766667 1.000000
vt 0.733333 1.000000
vt 0.700000 1.000000
vt 0.666667 1.000000
vt 0.633334 1.000000
vt 0.600000 1.000000
vt 0.566667 1.000000
vt 0.533334 1.000000
vt 0.500000 1.000000
vt 0.466667 1.000000
vt 0.433334 1.000000
vt 0.400000 1.000000
vt 0.366667 1.000000
vt 0.333334 1.000000
vt 0.300000 1.000000
vt 0.266667 1.000000
vt 0.233333 1.000000
vt 0.200000 1.000000
vt 0.166667 1.000000
vt 0.133333 1.000000
vt 0.100000 1.000000
vt 0.066667 1.000000
vt 0.033333 1.000000
vt 0.000000 1.000000
vn -0.978148 0.000000 0.207911
vn -1.000000 0.000000 0.000002
vn -1.000000 0.000000 0.000002
vn -0.978148 0.000000 0.207911
vn -0.913546 0.000000 0.406737
vn -0.913546 0.000000 0.406737
vn -0.809017 0.000000 0.587785
vn -0.809017 0.000000 0.587785
vn -0.669131 0.000000 0.743145
vn -0.669131 0.000000 0.743145
vn -0.500000 0.000000 0.866025
vn -0.500000 0.000000 0.866025
vn -0.309017 0.000000 0.951057
vn -0.309017 0.000000 0.951057
vn -0.104529 0.000000 0.994522
vn -0.104529 0.000000 0.994522
vn 0.104528 0.000000 0.994522
vn 0.104528 0.000000 0.994522
vn 0.309017 0.000000 0.951057
vn 0.309017 0.000000 0.951057
vn 0.500000 0.000000 0.866026
vn 0.500000 0.000000 0.866026
vn 0.669131 0.000000 0.743145
vn 0.669131 0.000000 0.743145
vn 0.809017 0.000000 0.587785
vn 0.809017 0.000000 0.587785
vn 0.913545 0.000000 0.406737
vn 0.913545 0.000000 0.406737
vn 0.978148 0.000000 0.207912
vn 0.978148 0.000000 0.207912
vn 1.000000 0.000000 0.000000
vn 1.000000 0.000000 0.000000
vn 0.978148 0.000000 -0.207912
vn 0.978148 0.000000 -0.207912
vn 0.913546 0.000000 -0.406737
vn 0.913546 0.000000 -0.406737
vn 0.809017 0.000000 -0.587785
vn 0.809017 0.000000 -0.587785
vn 0.669131 0.000000 -0.743145
vn 0.669131 0.000000 -0.743145
vn 0.500000 0.000000 -0.866025
vn 0.500000 0.000000 -0.866025
vn 0.309017 0.000000 -0.951057
vn 0.309017 0.000000 -0.951057
vn 0.104528 0.000000 -0.994522
vn 0.104528 0.000000 -0.994522
vn -0.104529 0.000000 -0.994522
vn -0.104529 0.000000 -0.994522
vn -0.309017 0.000000 -0.951057
vn -0.309017 0.000000 -0.951057
vn -0.500000 0.000000 -0.866026
vn -0.500000 0.000000 -0.866026
vn -0.669131 0.000000 -0.743145
vn -0.669131 0.000000 -0.743145
vn -0.809017 0.000000 -0.587785
vn -0.809017 0.000000 -0.587785
vn -0.913545 0.000000 -0.406737
vn -0.913545 0.000000 -0.406737
vn -0.978148 0.000000 -0.207909
vn -0.978148 0.000000 -0.207909
s 1
g pPipe1
usemtl initialShadingGroup
f 2/2/1 1/1/2 31/32/3 32/33/4
f 3/3/5 2/2/1 32/33/4 33/34/6
f 4/4/7 3/3/5 33/34/6 34/35/8
f 5/5/9 4/4/7 34/35/8 35/36/10
f 6/6/11 5/5/9 35/36/10 36/37/12
f 7/7/13 6/6/11 36/37/12 37/38/14
f 8/8/15 7/7/13 37/38/14 38/39/16
f 9/9/17 8/8/15 38/39/16 39/40/18
f 10/10/19 9/9/17 39/40/18 40/41/20
f 11/11/21 10/10/19 40/41/20 41/42/22
f 12/12/23 11/11/21 41/42/22 42/43/24
f 13/13/25 12/12/23 42/43/24 43/44/26
f 14/14/27 13/13/25 43/44/26 44/45/28
f 15/15/29 14/14/27 44/45/28 45/46/30
f 16/16/31 15/15/29 45/46/30 46/47/32
f 17/17/33 16/16/31 46/47/32 47/48/34
f 18/18/35 17/17/33 47/48/34 48/49/36
f 19/19/37 18/18/35 48/49/36 49/50/38
f 20/20/39 19/19/37 49/50/38 50/51/40
f 21/21/41 20/20/39 50/51/40 51/52/42
f 22/22/43 21/21/41 51/52/42 52/53/44
f 23/23/45 22/22/43 52/53/44 53/54/46
f 24/24/47 23/23/45 53/54/46 54/55/48
f 25/25/49 24/24/47 54/55/48 55/56/50
f 26/26/51 25/25/49 55/56/50 56/57/52
f 27/27/53 26/26/51 56/57/52 57/58/54
f 28/28/55 27/27/53 57/58/54 58/59/56
f 29/29/57 28/28/55 58/59/56 59/60/58
f 30/30/59 29/29/57 59/60/58 60/61/60
f 1/31/2 30/30/59 60/61/60 31/62/3
