# This file uses centimeters as units for non-parametric coordinates.

mtllib Inverted Cylinder.mtl
g default
v 0.500000 -0.500000 -0.000000
v 0.475528 -0.500000 -0.154509
v 0.404509 -0.500000 -0.293893
v 0.293893 -0.500000 -0.404509
v 0.154508 -0.500000 -0.475528
v -0.000000 -0.500000 -0.500000
v -0.154509 -0.500000 -0.475528
v -0.293893 -0.500000 -0.404509
v -0.404509 -0.500000 -0.293893
v -0.475528 -0.500000 -0.154509
v -0.500000 -0.500000 -0.000000
v -0.475528 -0.500000 0.154509
v -0.404509 -0.500000 0.293893
v -0.293893 -0.500000 0.404509
v -0.154509 -0.500000 0.475528
v 0.000000 -0.500000 0.500000
v 0.154509 -0.500000 0.475529
v 0.293893 -0.500000 0.404509
v 0.404509 -0.500000 0.293893
v 0.475529 -0.500000 0.154509
v 0.500000 0.500000 0.000000
v 0.475528 0.500000 -0.154509
v 0.404509 0.500000 -0.293893
v 0.293893 0.500000 -0.404509
v 0.154508 0.500000 -0.475528
v -0.000000 0.500000 -0.500000
v -0.154509 0.500000 -0.475528
v -0.293893 0.500000 -0.404509
v -0.404509 0.500000 -0.293893
v -0.475528 0.500000 -0.154509
v -0.500000 0.500000 0.000000
v -0.475528 0.500000 0.154509
v -0.404509 0.500000 0.293893
v -0.293893 0.500000 0.404509
v -0.154509 0.500000 0.475528
v 0.000000 0.500000 0.500000
v 0.154509 0.500000 0.475529
v 0.293893 0.500000 0.404509
v 0.404509 0.500000 0.293893
v 0.475529 0.500000 0.154509
vt 0.000000 1.000000
vt 0.050000 1.000000
vt 0.100000 1.000000
vt 0.150000 1.000000
vt 0.200000 1.000000
vt 0.250000 1.000000
vt 0.300000 1.000000
vt 0.350000 1.000000
vt 0.400000 1.000000
vt 0.450000 1.000000
vt 0.500000 1.000000
vt 0.550000 1.000000
vt 0.600000 1.000000
vt 0.650000 1.000000
vt 0.700000 1.000000
vt 0.750000 1.000000
vt 0.800000 1.000000
vt 0.850000 1.000000
vt 0.900000 1.000000
vt 0.950000 1.000000
vt 1.000000 1.000000
vt 0.000000 0.750000
vt 0.050000 0.750000
vt 0.100000 0.750000
vt 0.150000 0.750000
vt 0.200000 0.750000
vt 0.250000 0.750000
vt 0.300000 0.750000
vt 0.350000 0.750000
vt 0.400000 0.750000
vt 0.450000 0.750000
vt 0.500000 0.750000
vt 0.550000 0.750000
vt 0.600000 0.750000
vt 0.650000 0.750000
vt 0.700000 0.750000
vt 0.750000 0.750000
vt 0.800000 0.750000
vt 0.850000 0.750000
vt 0.900000 0.750000
vt 0.950000 0.750000
vt 1.000000 0.750000
vn -0.951057 0.000000 0.309017
vn -1.000000 0.000000 0.000001
vn -1.000000 0.000000 0.000001
vn -0.951057 0.000000 0.309017
vn -0.809017 0.000000 0.587785
vn -0.809017 0.000000 0.587785
vn -0.587785 0.000000 0.809017
vn -0.587785 0.000000 0.809017
vn -0.309017 0.000000 0.951057
vn -0.309017 0.000000 0.951057
vn -0.000000 0.000000 1.000000
vn -0.000000 0.000000 1.000000
vn 0.309017 0.000000 0.951057
vn 0.309017 0.000000 0.951057
vn 0.587785 0.000000 0.809017
vn 0.587785 0.000000 0.809017
vn 0.809017 0.000000 0.587785
vn 0.809017 0.000000 0.587785
vn 0.951056 -0.000000 0.309017
vn 0.951056 -0.000000 0.309017
vn 1.000000 -0.000000 0.000000
vn 1.000000 -0.000000 0.000000
vn 0.951057 0.000000 -0.309017
vn 0.951057 0.000000 -0.309017
vn 0.809017 0.000000 -0.587785
vn 0.809017 0.000000 -0.587785
vn 0.587785 0.000000 -0.809017
vn 0.587785 0.000000 -0.809017
vn 0.309017 0.000000 -0.951057
vn 0.309017 0.000000 -0.951057
vn 0.000000 0.000000 -1.000000
vn 0.000000 0.000000 -1.000000
vn -0.309017 0.000000 -0.951057
vn -0.309017 0.000000 -0.951057
vn -0.587785 0.000000 -0.809017
vn -0.587785 0.000000 -0.809017
vn -0.809017 0.000000 -0.587785
vn -0.809017 0.000000 -0.587785
vn -0.951057 0.000000 -0.309016
vn -0.951057 0.000000 -0.309016
s 1
g pPipe1
usemtl initialShadingGroup
f 2/2/1 1/1/2 21/22/3 22/23/4
f 3/3/5 2/2/1 22/23/4 23/24/6
f 4/4/7 3/3/5 23/24/6 24/25/8
f 5/5/9 4/4/7 24/25/8 25/26/10
f 6/6/11 5/5/9 25/26/10 26/27/12
f 7/7/13 6/6/11 26/27/12 27/28/14
f 8/8/15 7/7/13 27/28/14 28/29/16
f 9/9/17 8/8/15 28/29/16 29/30/18
f 10/10/19 9/9/17 29/30/18 30/31/20
f 11/11/21 10/10/19 30/31/20 31/32/22
f 12/12/23 11/11/21 31/32/22 32/33/24
f 13/13/25 12/12/23 32/33/24 33/34/26
f 14/14/27 13/13/25 33/34/26 34/35/28
f 15/15/29 14/14/27 34/35/28 35/36/30
f 16/16/31 15/15/29 35/36/30 36/37/32
f 17/17/33 16/16/31 36/37/32 37/38/34
f 18/18/35 17/17/33 37/38/34 38/39/36
f 19/19/37 18/18/35 38/39/36 39/40/38
f 20/20/39 19/19/37 39/40/38 40/41/40
f 1/21/2 20/20/39 40/41/40 21/42/3
