# This file uses centimeters as units for non-parametric coordinates.

mtllib invSliceUV.mtl
g default
v 0.500000 0.018400 0.000000
v 0.499000 0.018400 -0.009200
v 0.499000 0.000000 -0.009200
v 0.500000 0.000000 0.000000
v 0.499700 0.018400 0.002400
v 0.499000 0.000000 0.009200
v 0.499000 0.018400 0.009200
vt 0.000000 0.000000
vt 1.000000 0.000000
vt 1.000000 1.000000
vt 0.000000 1.000000
vt 0.000000 0.000000
vt 1.000000 0.000000
vt 1.000000 1.000000
vt 1.000000 0.000000
vt 1.000000 1.000000
vt 0.000000 0.000000
vt 0.000000 1.000000
vn -1.000000 0.000000 0.000000
vn -0.994525 0.000000 0.104503
vn -0.994525 0.000000 0.104503
vn -1.000000 0.000000 0.000000
vn -0.994525 0.000000 -0.104503
vn -1.000000 0.000000 0.000000
vn -1.000000 0.000000 0.000000
vn -0.994525 0.000000 -0.104503
vn -0.994525 0.000000 -0.104503
vn -0.994525 0.000000 -0.104503
vn -0.994525 0.000000 -0.104503
s off
g invSlice:pPipe1
usemtl initialShadingGroup
f 1/1/1 2/2/2 3/3/3 4/4/4
f 5/10/5 1/6/6 4/7/7 6/11/8
f 5/5/9 6/8/10 7/9/11
