# 3ds Max Wavefront OBJ Exporter v0.97b - (c)2007 guruware
# File Created: 27.03.2017 17:24:32

mtllib invSliceuv.mtl

#
# object pPipe1
#

v  0.5000 0.0184 -0.0000
v  0.4990 0.0184 -0.0092
v  0.4990 0.0000 -0.0092
v  0.5000 0.0000 -0.0000
v  0.4997 0.0184 0.0024
v  0.4990 0.0000 0.0092
v  0.4990 0.0184 0.0092
# 7 vertices

vn -1.0000 0.0000 0.0000
vn -0.9945 0.0000 0.1045
vn -0.9945 0.0000 -0.1045
vn -0.9945 -0.0000 -0.1045
# 4 vertex normals

vt 1.0000 0.5117 0.0000
vt 0.9971 0.5117 0.0000
vt 0.9971 0.5000 0.0000
vt 1.0000 0.5000 0.0000
vt 0.9900 0.3702 0.0000
vt 0.9900 0.5000 0.0000
vt 0.0100 0.5000 0.0000
vt 0.0100 0.0100 0.0000
vt 0.9900 0.0100 0.0000
# 9 texture coords

g pPipe1
usemtl initialShadingGroup
s 1
f 1/1/1 2/2/2 3/3/2 4/4/1 
f 5/5/3 1/6/1 4/7/1 6/8/3 
f 5/5/3 6/8/3 7/9/4 
# 2 polygons - 1 triangles

